<svg width="56" height="56" viewBox="0 0 56 56" fill="none" xmlns="http://www.w3.org/2000/svg">
<rect width="56" height="56" rx="16" fill="#B1F0CE"/>
<path d="M33.625 28.9375L28.4375 23.875C27.7917 23.25 27.2448 22.5573 26.7969 21.7969C26.349 21.0365 26.125 20.2083 26.125 19.3125C26.125 18.1667 26.526 17.1927 27.3281 16.3906C28.1302 15.5885 29.1042 15.1875 30.25 15.1875C30.9167 15.1875 31.5417 15.3281 32.125 15.6094C32.7083 15.8906 33.2083 16.2708 33.625 16.75C34.0417 16.2708 34.5417 15.8906 35.125 15.6094C35.7083 15.3281 36.3333 15.1875 37 15.1875C38.1458 15.1875 39.1198 15.5885 39.9219 16.3906C40.724 17.1927 41.125 18.1667 41.125 19.3125C41.125 20.2083 40.9062 21.0365 40.4688 21.7969C40.0312 22.5573 39.4896 23.25 38.8438 23.875L33.625 28.9375ZM33.625 25.4375L37.0312 22.0938C37.4271 21.6979 37.7917 21.276 38.125 20.8281C38.4583 20.3802 38.625 19.875 38.625 19.3125C38.625 18.8542 38.4688 18.4688 38.1562 18.1562C37.8438 17.8438 37.4583 17.6875 37 17.6875C36.7083 17.6875 36.4323 17.7448 36.1719 17.8594C35.9115 17.974 35.6875 18.1458 35.5 18.375L33.625 20.625L31.75 18.375C31.5625 18.1458 31.3385 17.974 31.0781 17.8594C30.8177 17.7448 30.5417 17.6875 30.25 17.6875C29.7917 17.6875 29.4062 17.8438 29.0938 18.1562C28.7812 18.4688 28.625 18.8542 28.625 19.3125C28.625 19.875 28.7917 20.3802 29.125 20.8281C29.4583 21.276 29.8229 21.6979 30.2188 22.0938L33.625 25.4375ZM22.375 35.8125L31.0625 38.1875L38.5 35.875C38.3958 35.6875 38.2448 35.526 38.0469 35.3906C37.849 35.2552 37.625 35.1875 37.375 35.1875H31.0625C30.5 35.1875 30.0521 35.1667 29.7188 35.125C29.3854 35.0833 29.0417 35 28.6875 34.875L25.7812 33.9062L26.4688 31.4688L29 32.3125C29.3542 32.4167 29.7708 32.5 30.25 32.5625C30.7292 32.625 31.4375 32.6667 32.375 32.6875C32.375 32.4583 32.3073 32.2396 32.1719 32.0312C32.0365 31.8229 31.875 31.6875 31.6875 31.625L24.375 28.9375H22.375V35.8125ZM14.875 40.1875V26.4375H24.375C24.5208 26.4375 24.6667 26.4531 24.8125 26.4844C24.9583 26.5156 25.0938 26.5521 25.2188 26.5938L32.5625 29.3125C33.25 29.5625 33.8073 30 34.2344 30.625C34.6615 31.25 34.875 31.9375 34.875 32.6875H37.375C38.4167 32.6875 39.3021 33.0312 40.0312 33.7188C40.7604 34.4062 41.125 35.3125 41.125 36.4375V37.6875L31.125 40.8125L22.375 38.375V40.1875H14.875ZM17.375 37.6875H19.875V28.9375H17.375V37.6875Z" fill="#0F5238"/>
</svg>
