<svg width="41" height="41" viewBox="0 0 41 41" fill="none" xmlns="http://www.w3.org/2000/svg">
<rect width="41.0001" height="40.9969" rx="20.4962" fill="#B1F0CE"/>
<path d="M14.4016 26.5953C13.6515 25.8452 13.064 24.9785 12.6389 23.995C12.2139 23.0116 12.0014 21.9948 12.0014 20.9447C12.0014 19.8946 12.2014 18.8569 12.6014 17.8318C13.0015 16.8067 13.6515 15.8441 14.5516 14.944C15.135 14.3606 15.856 13.8605 16.7144 13.4438C17.5728 13.0271 18.5896 12.6979 19.7647 12.4562C20.9399 12.2145 22.2817 12.0687 23.7902 12.0187C25.2987 11.9687 26.9864 12.027 28.8533 12.1937C28.9866 13.9606 29.0283 15.5857 28.9783 17.0692C28.9283 18.5527 28.7908 19.8904 28.5657 21.0822C28.3407 22.274 28.024 23.3158 27.6156 24.2075C27.2072 25.0993 26.703 25.8452 26.103 26.4453C25.2195 27.3287 24.2819 27.9746 23.2901 28.383C22.2984 28.7914 21.2857 28.9956 20.2523 28.9956C19.1688 28.9956 18.1104 28.7831 17.0769 28.358C16.0435 27.933 15.1517 27.3454 14.4016 26.5953ZM17.2019 26.1953C17.6853 26.4786 18.1812 26.6828 18.6896 26.8078C19.198 26.9329 19.7189 26.9954 20.2523 26.9954C21.019 26.9954 21.7775 26.8412 22.5275 26.5328C23.2776 26.2244 23.9944 25.7286 24.6778 25.0451C24.9778 24.7451 25.282 24.3242 25.5904 23.7825C25.8988 23.2408 26.1655 22.5324 26.3905 21.6573C26.6155 20.7822 26.7864 19.7237 26.903 18.4819C27.0197 17.2401 27.0364 15.7608 26.953 14.0439C26.1363 14.0106 25.2154 13.9981 24.1902 14.0064C23.1651 14.0147 22.1442 14.0939 21.1274 14.2439C20.1106 14.3939 19.1438 14.6356 18.2271 14.969C17.3103 15.3024 16.5602 15.7608 15.9768 16.3442C15.2267 17.0942 14.71 17.836 14.4266 18.5694C14.1433 19.3028 14.0016 20.0112 14.0016 20.6946C14.0016 21.6781 14.1891 22.5407 14.5641 23.2824C14.9392 24.0242 15.2684 24.5451 15.5518 24.8451C16.2518 23.5116 17.1769 22.2323 18.3271 21.0072C19.4772 19.782 20.819 18.7778 22.3525 17.9943C21.1524 19.0445 20.1064 20.2321 19.2147 21.5572C18.3229 22.8824 17.652 24.4284 17.2019 26.1953Z" fill="#002114"/>
</svg>
